<?xml version="1.0" encoding="UTF-8" standalone="no"?>
<svg
   height="533.3338"
   width="547.00061"
   viewBox="-74.4 -120.90175 293.92166 483.60742"
   version="1.1"
   id="svg4"
   sodipodi:docname="github_logo.svg"
   inkscape:version="1.1.2 (0a00cf5339, 2022-02-04, custom)"
   xmlns:inkscape="http://www.inkscape.org/namespaces/inkscape"
   xmlns:sodipodi="http://sodipodi.sourceforge.net/DTD/sodipodi-0.dtd"
   xmlns="http://www.w3.org/2000/svg"
   xmlns:svg="http://www.w3.org/2000/svg">
  <defs
     id="defs8" />
  <sodipodi:namedview
     id="namedview6"
     pagecolor="#ffffff"
     bordercolor="#999999"
     borderopacity="1"
     inkscape:pageshadow="0"
     inkscape:pageopacity="0"
     inkscape:pagecheckerboard="0"
     showgrid="false"
     inkscape:zoom="0.35708892"
     inkscape:cx="-215.63256"
     inkscape:cy="312.24715"
     inkscape:window-width="1920"
     inkscape:window-height="1001"
     inkscape:window-x="-9"
     inkscape:window-y="-9"
     inkscape:window-maximized="1"
     inkscape:current-layer="svg4" />
  <path
     d="m -9.539165,268.49824 c 0,2 -2.3,3.6 -5.2,3.6 -3.3,0.3 -5.6,-1.3 -5.6,-3.6 0,-2 2.3,-3.6 5.2,-3.6 3,-0.3 5.6,1.3 5.6,3.6 z m -31.1,-4.5 c -0.7,2 1.3,4.3 4.3,4.9 2.6,1 5.6,0 6.2,-2 0.6,-2 -1.3,-4.3 -4.3,-5.2 -2.6,-0.7 -5.5,0.3 -6.2,2.3 z m 44.2,-1.7 c -2.90001,0.7 -4.90001,2.6 -4.6,4.9 0.3,2 2.9,3.3 5.9,2.6 2.9,-0.7 4.9,-2.6 4.6,-4.6 -0.30001,-1.9 -3,-3.2 -5.9,-2.9 z m 65.799995,-383.2 c -138.699995,0 -244.79999,105.300002 -244.79999,244 0,110.9 69.79999,205.8 169.499995,239.2 12.8,2.3 17.3,-5.6 17.3,-12.1 0,-6.2 -0.3,-40.4 -0.3,-61.4 0,0 -70,15 -84.7,-29.8 0,0 -11.4,-29.1 -27.800005,-36.6 0,0 -22.9,-15.7 1.600005,-15.4 0,0 24.9,2 38.6,25.8 21.9,38.6 58.59999,27.5 72.89999,20.9 2.30001,-16 8.80001,-27.1 16.000005,-33.7 -55.899995,-6.2 -112.299995,-14.3 -112.299995,-110.5 0,-27.499998 7.6,-41.299998 23.6,-58.899998 -2.6,-6.5 -11.1,-33.3 2.6,-67.9 20.9,-6.5 69,27.0000002 69,27.0000002 19.999995,-5.6 41.499995,-8.5 62.799995,-8.5 21.3,0 42.8,2.9 62.8,8.5 0,0 48.1,-33.6000002 69,-27.0000002 13.7,34.7 5.2,61.4 2.6,67.9 16,17.7 25.8,31.5 25.8,58.899998 0,96.5 -58.9,104.2 -114.8,110.5 9.2,7.9 17,22.9 17,46.4 0,33.7 -0.3,75.4 -0.3,83.6 0,6.5 4.6,14.4 17.3,12.1 99.99999,-33.2 167.79999,-128.1 167.79999,-239 0,-138.699998 -112.49999,-244 -251.19999,-244 z m -147.599995,344.9 c -1.3,1 -1,3.3 0.7,5.2 1.6,1.6 3.9,2.3 5.2,1 1.3,-1 1,-3.3 -0.7,-5.2 -1.6,-1.6 -3.9,-2.3 -5.2,-1 z m -10.8,-8.1 c -0.7,1.3 0.3,2.9 2.3,3.9 1.6,1 3.6,0.7 4.3,-0.7 0.7,-1.3 -0.3,-2.9 -2.3,-3.9 -2,-0.6 -3.6,-0.3 -4.3,0.7 z m 32.4,35.6 c -1.6,1.3 -1,4.3 1.3,6.2 2.3,2.3 5.2,2.6 6.5,1 1.3,-1.3 0.7,-4.3 -1.3,-6.2 -2.2,-2.3 -5.2,-2.6 -6.5,-1 z m -11.4,-14.7 c -1.6,1 -1.6,3.6 0,5.9 1.6,2.3 4.3,3.3 5.6,2.3 1.6,-1.3 1.6,-3.9 0,-6.2 -1.4,-2.3 -4,-3.3 -5.6,-2 z"
     id="path2" />
</svg>
