<?xml version="1.0" encoding="UTF-8" standalone="no"?>
<svg
   height="533.33325"
   width="573.33295"
   viewBox="-274.66275 -425.834 1137.3065 1703.3357"
   version="1.1"
   id="svg56"
   sodipodi:docname="outlook_logo.svg"
   inkscape:version="1.1.2 (0a00cf5339, 2022-02-04, custom)"
   xmlns:inkscape="http://www.inkscape.org/namespaces/inkscape"
   xmlns:sodipodi="http://sodipodi.sourceforge.net/DTD/sodipodi-0.dtd"
   xmlns="http://www.w3.org/2000/svg"
   xmlns:svg="http://www.w3.org/2000/svg">
  <defs
     id="defs60" />
  <sodipodi:namedview
     id="namedview58"
     pagecolor="#ffffff"
     bordercolor="#999999"
     borderopacity="1"
     inkscape:pageshadow="0"
     inkscape:pageopacity="0"
     inkscape:pagecheckerboard="0"
     showgrid="false"
     inkscape:zoom="0.505"
     inkscape:cx="105.94059"
     inkscape:cy="228.71287"
     inkscape:window-width="1920"
     inkscape:window-height="1001"
     inkscape:window-x="-9"
     inkscape:window-y="-9"
     inkscape:window-maximized="1"
     inkscape:current-layer="svg56" />
  <linearGradient
     gradientTransform="matrix(1,0,0,-1,0,1705.333)"
     y2="1.998"
     x2="1128.458"
     y1="811.08301"
     x1="1128.458"
     gradientUnits="userSpaceOnUse"
     id="a">
    <stop
       offset="0"
       stop-color="#35b8f1"
       id="stop18" />
    <stop
       offset="1"
       stop-color="#28a8ea"
       id="stop20" />
  </linearGradient>
  <linearGradient
     gradientTransform="matrix(1,0,0,-1,0,1705.333)"
     y2="324.259"
     x2="774.086"
     y1="1383.074"
     x1="162.74699"
     gradientUnits="userSpaceOnUse"
     id="b">
    <stop
       offset="0"
       stop-color="#1784d9"
       id="stop43" />
    <stop
       offset=".5"
       stop-color="#107ad5"
       id="stop45" />
    <stop
       offset="1"
       stop-color="#0a63c9"
       id="stop47" />
  </linearGradient>
  <g
     id="g898"
     transform="translate(-621.552,-425.834)">
    <path
       d="m 1831.083,894.25 a 40.879,40.879 0 0 0 -19.503,-35.131 h -0.213 l -0.767,-0.426 -634.492,-375.585 a 86.175,86.175 0 0 0 -8.517,-5.067 85.17,85.17 0 0 0 -78.098,0 86.37,86.37 0 0 0 -8.517,5.067 l -634.49,375.585 -0.766,0.426 c -19.392,12.059 -25.337,37.556 -13.278,56.948 a 41.346,41.346 0 0 0 14.257,13.868 l 634.492,375.585 a 95.617,95.617 0 0 0 8.517,5.068 85.17,85.17 0 0 0 78.098,0 95.52,95.52 0 0 0 8.517,-5.068 l 634.492,-375.585 a 40.84,40.84 0 0 0 20.268,-35.685 z"
       fill="#0a2767"
       id="path2" />
    <path
       d="m 520.453,643.477 h 416.38 v 381.674 H 520.453 Z M 1745.917,255.5 V 80.908 C 1746.917,37.256 1712.365,1.046 1668.714,0 H 588.204 C 544.552,1.046 510,37.256 511,80.908 V 255.5 l 638.75,170.333 z"
       fill="#0364b8"
       id="path4" />
    <path
       d="M 511,255.5 H 936.833 V 638.75 H 511 Z"
       fill="#0078d4"
       id="path6" />
    <path
       d="M 1362.667,255.5 H 936.833 V 638.75 L 1362.667,1022 h 383.25 V 638.75 Z"
       fill="#28a8ea"
       id="path8" />
    <path
       d="m 936.833,638.75 h 425.833 V 1022 H 936.833 Z"
       fill="#0078d4"
       id="path10" />
    <path
       d="m 936.833,1022 h 425.833 v 383.25 H 936.833 Z"
       fill="#0364b8"
       id="path12" />
    <path
       d="m 520.453,1025.151 h 416.38 v 346.969 h -416.38 z"
       fill="#14447d"
       id="path14" />
    <path
       d="m 1362.667,1022 h 383.25 v 383.25 h -383.25 z"
       fill="#0078d4"
       id="path16" />
    <path
       d="m 1811.58,927.593 -0.809,0.426 -634.492,356.848 c -2.768,1.703 -5.578,3.321 -8.517,4.769 a 88.437,88.437 0 0 1 -34.407,8.517 l -34.663,-20.27 a 86.706,86.706 0 0 1 -8.517,-4.897 L 447.167,906.003 h -0.298 L 425.833,894.25 v 722.384 c 0.328,48.196 39.653,87.006 87.849,86.7 h 1230.914 c 0.724,0 1.363,-0.341 2.129,-0.341 a 107.79,107.79 0 0 0 29.808,-6.217 86.066,86.066 0 0 0 11.966,-6.217 c 2.853,-1.618 7.75,-5.152 7.75,-5.152 a 85.974,85.974 0 0 0 34.833,-68.772 V 894.25 a 38.323,38.323 0 0 1 -19.502,33.343 z"
       fill="url(#a)"
       id="path23"
       style="fill:url(#a)" />
    <path
       d="m 1797.017,891.397 v 44.287 l -663.448,456.791 -686.87,-486.174 a 0.426,0.426 0 0 0 -0.426,-0.426 L 383.25,867.976 v -31.938 l 25.976,-0.426 54.932,31.512 1.277,0.426 4.684,2.981 c 0,0 645.563,368.346 647.267,369.197 l 24.698,14.478 c 2.129,-0.852 4.258,-1.703 6.813,-2.555 1.278,-0.852 640.879,-360.681 640.879,-360.681 z"
       fill="#0a2767"
       opacity="0.5"
       id="path25" />
    <path
       d="m 1811.58,927.593 -0.809,0.468 -634.492,356.848 c -2.768,1.703 -5.578,3.321 -8.517,4.769 a 88.96,88.96 0 0 1 -78.098,0 96.578,96.578 0 0 1 -8.517,-4.769 l -634.49,-356.848 -0.766,-0.468 A 38.326,38.326 0 0 1 425.834,894.25 v 722.384 c 0.305,48.188 39.616,87.004 87.803,86.7 h 1229.64 c 48.188,0.307 87.5,-38.509 87.807,-86.696 0,-10e-4 0,0 0,0 V 894.25 a 38.33,38.33 0 0 1 -19.504,33.343 z"
       fill="#1490df"
       id="path27" />
    <path
       d="m 1185.52,1279.629 -9.496,5.323 a 92.806,92.806 0 0 1 -8.517,4.812 88.173,88.173 0 0 1 -33.47,8.857 l 241.405,285.479 421.107,101.476 a 86.785,86.785 0 0 0 26.7,-33.343 z"
       opacity="0.1"
       id="path29" />
    <path
       d="m 1228.529,1255.442 -52.505,29.51 a 92.806,92.806 0 0 1 -8.517,4.812 88.173,88.173 0 0 1 -33.47,8.857 l 113.101,311.838 549.538,74.989 a 86.104,86.104 0 0 0 34.407,-68.815 v -9.326 z"
       opacity="0.05"
       id="path31" />
    <path
       d="m 514.833,1703.333 h 1228.316 a 88.316,88.316 0 0 0 52.59,-17.033 L 1098.65,1277.969 a 86.706,86.706 0 0 1 -8.517,-4.897 L 447.125,906.088 h -0.298 L 425.834,894.25 v 719.914 c -0.048,49.2 39.798,89.122 88.999,89.169 -10e-4,0 -10e-4,0 0,0 z"
       fill="#28a8ea"
       id="path33" />
    <path
       d="m 1022,418.722 v 908.303 c -0.076,31.846 -19.44,60.471 -48.971,72.392 a 73.382,73.382 0 0 1 -28.957,5.962 H 425.833 V 383.25 H 511 v -42.583 h 433.073 c 43.019,0.163 77.834,35.035 77.927,78.055 z"
       opacity="0.1"
       id="path35" />
    <path
       d="m 979.417,461.305 v 908.302 a 69.36,69.36 0 0 1 -6.388,29.808 c -11.826,29.149 -40.083,48.273 -71.54,48.417 H 425.833 V 383.25 h 475.656 a 71.493,71.493 0 0 1 35.344,8.943 c 26.104,13.151 42.574,39.883 42.584,69.112 z"
       opacity="0.2"
       id="path37" />
    <path
       d="m 979.417,461.305 v 823.136 c -0.208,43 -34.928,77.853 -77.927,78.225 H 425.833 V 383.25 h 475.656 a 71.493,71.493 0 0 1 35.344,8.943 c 26.104,13.151 42.574,39.883 42.584,69.112 z"
       opacity="0.2"
       id="path39" />
    <path
       d="m 936.833,461.305 v 823.136 c -0.046,43.067 -34.861,78.015 -77.927,78.225 H 425.833 V 383.25 h 433.072 c 43.062,0.023 77.951,34.951 77.927,78.013 a 0.589,0.589 0 0 1 10e-4,0.042 z"
       opacity="0.2"
       id="path41" />
    <path
       d="m 78.055,383.25 h 780.723 c 43.109,0 78.055,34.947 78.055,78.055 v 780.723 c 0,43.109 -34.946,78.055 -78.055,78.055 H 78.055 C 34.946,1320.083 0,1285.136 0,1242.028 V 461.305 C 0,418.197 34.947,383.25 78.055,383.25 Z"
       fill="url(#b)"
       id="path50"
       style="fill:url(#b)" />
    <path
       d="m 243.96,710.631 a 227.05,227.05 0 0 1 89.17,-98.495 269.56,269.56 0 0 1 141.675,-35.515 250.91,250.91 0 0 1 131.114,33.683 225.014,225.014 0 0 1 86.742,94.109 303.751,303.751 0 0 1 30.405,138.396 320.567,320.567 0 0 1 -31.299,144.783 230.37,230.37 0 0 1 -89.425,97.388 260.864,260.864 0 0 1 -136.011,34.578 256.355,256.355 0 0 1 -134.01,-34.067 228.497,228.497 0 0 1 -87.892,-94.28 296.507,296.507 0 0 1 -30.745,-136.735 329.29,329.29 0 0 1 30.276,-143.845 z m 95.046,231.227 a 147.386,147.386 0 0 0 50.163,64.812 131.028,131.028 0 0 0 78.353,23.591 137.244,137.244 0 0 0 83.634,-24.358 141.156,141.156 0 0 0 48.715,-64.812 251.594,251.594 0 0 0 15.543,-90.404 275.198,275.198 0 0 0 -14.649,-91.554 144.775,144.775 0 0 0 -47.182,-67.537 129.58,129.58 0 0 0 -82.91,-25.55 135.202,135.202 0 0 0 -80.184,23.804 148.626,148.626 0 0 0 -51.1,65.365 259.759,259.759 0 0 0 -0.341,186.728 z"
       fill="#ffffff"
       id="path52" />
    <path
       d="m 1362.667,255.5 h 383.25 v 383.25 h -383.25 z"
       fill="#50d9ff"
       id="path54" />
  </g>
</svg>
